<?xml version="1.0" encoding="UTF-8"?>
<svg xmlns="http://www.w3.org/2000/svg" xmlns:xlink="http://www.w3.org/1999/xlink" version="1.1" id="Capa_1" x="0px" y="0px" viewBox="0 0 512 512" style="enable-background:new 0 0 512 512;" xml:space="preserve" width="512" height="512">
<g>
	
		<path style="fill-rule:evenodd;clip-rule:evenodd;fill:none;stroke:#000000;stroke-width:29.9999;stroke-linecap:round;stroke-linejoin:round;stroke-miterlimit:22.9256;" d="&#10;&#9;&#9;M186.149,143.216c23.704,12.73,39.823,37.754,39.823,66.544c0,28.79-16.119,53.813-39.823,66.543v106.909h-71.326V276.303&#10;&#9;&#9;C91.12,263.572,75,238.55,75,209.76s16.119-53.813,39.823-66.543v49.306l35.663,24.964l35.663-24.964V143.216z"/>
	
		<path style="fill-rule:evenodd;clip-rule:evenodd;fill:none;stroke:#000000;stroke-width:29.9999;stroke-linecap:round;stroke-linejoin:round;stroke-miterlimit:22.9256;" d="&#10;&#9;&#9;M51.62,83.239H460.38c20.141,0,36.62,16.479,36.62,36.619v308.903l-79-45.545H51.62c-20.14,0-36.62-16.479-36.62-36.62V119.858&#10;&#9;&#9;C15,99.717,31.479,83.239,51.62,83.239z"/>
	
		<line style="fill-rule:evenodd;clip-rule:evenodd;fill:none;stroke:#000000;stroke-width:29.9999;stroke-linecap:round;stroke-linejoin:round;stroke-miterlimit:22.9256;" x1="286" y1="143.217" x2="437.001" y2="143.217"/>
	
		<line style="fill-rule:evenodd;clip-rule:evenodd;fill:none;stroke:#000000;stroke-width:29.9999;stroke-linecap:round;stroke-linejoin:round;stroke-miterlimit:22.9256;" x1="286" y1="203.217" x2="437.001" y2="203.217"/>
	
		<line style="fill-rule:evenodd;clip-rule:evenodd;fill:none;stroke:#000000;stroke-width:29.9999;stroke-linecap:round;stroke-linejoin:round;stroke-miterlimit:22.9256;" x1="286" y1="263.217" x2="437.001" y2="263.217"/>
	
		<line style="fill-rule:evenodd;clip-rule:evenodd;fill:none;stroke:#000000;stroke-width:29.9999;stroke-linecap:round;stroke-linejoin:round;stroke-miterlimit:22.9256;" x1="286" y1="323.217" x2="376" y2="323.217"/>
</g>















</svg>
